<svg
  xmlns="http://www.w3.org/2000/svg"
  width="490"
  height="490"
  viewBox="0 0 490.432 490.432"
>
  <path
    fill="#004D40"
    d="M198.569 310.268l94.704-65.666-94.704-64.806z"
  >
  </path>
  <path
    fill="#004D40"
    d="M408.807 0H81.624C36.548 0 0 36.539 0 81.624v327.183c0 45.085 36.548 81.625 81.624 81.625h327.183c45.076 0 81.625-36.54 81.625-81.625V81.624C490.432 36.539 453.883 0 408.807 0zm-55.256 262.408L187.936 377.241a24.455 24.455 0 01-13.925 4.354c-3.874 0-7.764-.908-11.32-2.773a24.434 24.434 0 01-13.096-21.633v-223.96a24.423 24.423 0 0124.415-24.422 24.37 24.37 0 0113.797 4.272l165.632 113.364a21.787 21.787 0 019.501 17.951 21.832 21.832 0 01-9.389 18.014z"
  >
  </path>
</svg>
